<svg width="347" height="58" viewBox="0 0 347 58" fill="none" xmlns="http://www.w3.org/2000/svg">
<path d="M26 12L122 12" stroke="#40BFFF"/>
<path d="M122 12L218 12" stroke="#40BFFF"/>
<path d="M218 12L314 12" stroke="#EBF0FF"/>
<path d="M6.88514 45.084C6.88514 45.78 6.64514 46.36 6.16514 46.824C5.69314 47.28 4.96914 47.508 3.99314 47.508H2.38514V51H1.29314V42.636H3.99314C4.93714 42.636 5.65314 42.864 6.14114 43.32C6.63714 43.776 6.88514 44.364 6.88514 45.084ZM3.99314 46.608C4.60114 46.608 5.04914 46.476 5.33714 46.212C5.62514 45.948 5.76914 45.572 5.76914 45.084C5.76914 44.052 5.17714 43.536 3.99314 43.536H2.38514V46.608H3.99314ZM8.33436 47.688C8.33436 47.016 8.47036 46.428 8.74236 45.924C9.01436 45.412 9.38636 45.016 9.85836 44.736C10.3384 44.456 10.8704 44.316 11.4544 44.316C12.0304 44.316 12.5304 44.44 12.9544 44.688C13.3784 44.936 13.6944 45.248 13.9024 45.624V44.424H15.0064V51H13.9024V49.776C13.6864 50.16 13.3624 50.48 12.9304 50.736C12.5064 50.984 12.0104 51.108 11.4424 51.108C10.8584 51.108 10.3304 50.964 9.85836 50.676C9.38636 50.388 9.01436 49.984 8.74236 49.464C8.47036 48.944 8.33436 48.352 8.33436 47.688ZM13.9024 47.7C13.9024 47.204 13.8024 46.772 13.6024 46.404C13.4024 46.036 13.1304 45.756 12.7864 45.564C12.4504 45.364 12.0784 45.264 11.6704 45.264C11.2624 45.264 10.8904 45.36 10.5544 45.552C10.2184 45.744 9.95036 46.024 9.75036 46.392C9.55036 46.76 9.45036 47.192 9.45036 47.688C9.45036 48.192 9.55036 48.632 9.75036 49.008C9.95036 49.376 10.2184 49.66 10.5544 49.86C10.8904 50.052 11.2624 50.148 11.6704 50.148C12.0784 50.148 12.4504 50.052 12.7864 49.86C13.1304 49.66 13.4024 49.376 13.6024 49.008C13.8024 48.632 13.9024 48.196 13.9024 47.7ZM16.9437 47.7C16.9437 47.02 17.0797 46.428 17.3517 45.924C17.6237 45.412 17.9997 45.016 18.4797 44.736C18.9677 44.456 19.5237 44.316 20.1477 44.316C20.9557 44.316 21.6197 44.512 22.1397 44.904C22.6677 45.296 23.0157 45.84 23.1837 46.536H22.0077C21.8957 46.136 21.6757 45.82 21.3477 45.588C21.0277 45.356 20.6277 45.24 20.1477 45.24C19.5237 45.24 19.0197 45.456 18.6357 45.888C18.2517 46.312 18.0597 46.916 18.0597 47.7C18.0597 48.492 18.2517 49.104 18.6357 49.536C19.0197 49.968 19.5237 50.184 20.1477 50.184C20.6277 50.184 21.0277 50.072 21.3477 49.848C21.6677 49.624 21.8877 49.304 22.0077 48.888H23.1837C23.0077 49.56 22.6557 50.1 22.1277 50.508C21.5997 50.908 20.9397 51.108 20.1477 51.108C19.5237 51.108 18.9677 50.968 18.4797 50.688C17.9997 50.408 17.6237 50.012 17.3517 49.5C17.0797 48.988 16.9437 48.388 16.9437 47.7ZM28.8128 51L26.2328 48.096V51H25.1408V42.12H26.2328V47.34L28.7648 44.424H30.2888L27.1928 47.7L30.3008 51H28.8128ZM32.3806 43.356C32.1726 43.356 31.9966 43.284 31.8526 43.14C31.7086 42.996 31.6366 42.82 31.6366 42.612C31.6366 42.404 31.7086 42.228 31.8526 42.084C31.9966 41.94 32.1726 41.868 32.3806 41.868C32.5806 41.868 32.7486 41.94 32.8846 42.084C33.0286 42.228 33.1006 42.404 33.1006 42.612C33.1006 42.82 33.0286 42.996 32.8846 43.14C32.7486 43.284 32.5806 43.356 32.3806 43.356ZM32.9086 44.424V51H31.8166V44.424H32.9086ZM38.4737 44.304C39.2737 44.304 39.9217 44.548 40.4177 45.036C40.9137 45.516 41.1617 46.212 41.1617 47.124V51H40.0817V47.28C40.0817 46.624 39.9177 46.124 39.5897 45.78C39.2617 45.428 38.8137 45.252 38.2457 45.252C37.6697 45.252 37.2097 45.432 36.8657 45.792C36.5297 46.152 36.3617 46.676 36.3617 47.364V51H35.2697V44.424H36.3617V45.36C36.5777 45.024 36.8697 44.764 37.2377 44.58C37.6137 44.396 38.0257 44.304 38.4737 44.304ZM46.1575 44.316C46.7255 44.316 47.2215 44.44 47.6455 44.688C48.0775 44.936 48.3975 45.248 48.6055 45.624V44.424H49.7095V51.144C49.7095 51.744 49.5815 52.276 49.3255 52.74C49.0695 53.212 48.7015 53.58 48.2215 53.844C47.7495 54.108 47.1975 54.24 46.5655 54.24C45.7015 54.24 44.9815 54.036 44.4055 53.628C43.8295 53.22 43.4895 52.664 43.3855 51.96H44.4655C44.5855 52.36 44.8335 52.68 45.2095 52.92C45.5855 53.168 46.0375 53.292 46.5655 53.292C47.1655 53.292 47.6535 53.104 48.0295 52.728C48.4135 52.352 48.6055 51.824 48.6055 51.144V49.764C48.3895 50.148 48.0695 50.468 47.6455 50.724C47.2215 50.98 46.7255 51.108 46.1575 51.108C45.5735 51.108 45.0415 50.964 44.5615 50.676C44.0895 50.388 43.7175 49.984 43.4455 49.464C43.1735 48.944 43.0375 48.352 43.0375 47.688C43.0375 47.016 43.1735 46.428 43.4455 45.924C43.7175 45.412 44.0895 45.016 44.5615 44.736C45.0415 44.456 45.5735 44.316 46.1575 44.316ZM48.6055 47.7C48.6055 47.204 48.5055 46.772 48.3055 46.404C48.1055 46.036 47.8335 45.756 47.4895 45.564C47.1535 45.364 46.7815 45.264 46.3735 45.264C45.9655 45.264 45.5935 45.36 45.2575 45.552C44.9215 45.744 44.6535 46.024 44.4535 46.392C44.2535 46.76 44.1535 47.192 44.1535 47.688C44.1535 48.192 44.2535 48.632 44.4535 49.008C44.6535 49.376 44.9215 49.66 45.2575 49.86C45.5935 50.052 45.9655 50.148 46.3735 50.148C46.7815 50.148 47.1535 50.052 47.4895 49.86C47.8335 49.66 48.1055 49.376 48.3055 49.008C48.5055 48.632 48.6055 48.196 48.6055 47.7Z" fill="#9098B1"/>
<circle cx="26" cy="12" r="12" fill="#40BFFF"/>
<path d="M23 12.5L25.3333 15L30 10" stroke="white" stroke-width="2" stroke-linecap="round" stroke-linejoin="round"/>
<path d="M97.0115 51.084C96.4595 51.084 95.9635 50.988 95.5235 50.796C95.0915 50.596 94.7515 50.324 94.5035 49.98C94.2555 49.628 94.1275 49.224 94.1195 48.768H95.2835C95.3235 49.16 95.4835 49.492 95.7635 49.764C96.0515 50.028 96.4675 50.16 97.0115 50.16C97.5315 50.16 97.9395 50.032 98.2355 49.776C98.5395 49.512 98.6915 49.176 98.6915 48.768C98.6915 48.448 98.6035 48.188 98.4275 47.988C98.2515 47.788 98.0315 47.636 97.7675 47.532C97.5035 47.428 97.1475 47.316 96.6995 47.196C96.1475 47.052 95.7035 46.908 95.3675 46.764C95.0395 46.62 94.7555 46.396 94.5155 46.092C94.2835 45.78 94.1675 45.364 94.1675 44.844C94.1675 44.388 94.2835 43.984 94.5155 43.632C94.7475 43.28 95.0715 43.008 95.4875 42.816C95.9115 42.624 96.3955 42.528 96.9395 42.528C97.7235 42.528 98.3635 42.724 98.8595 43.116C99.3635 43.508 99.6475 44.028 99.7115 44.676H98.5115C98.4715 44.356 98.3035 44.076 98.0075 43.836C97.7115 43.588 97.3195 43.464 96.8315 43.464C96.3755 43.464 96.0035 43.584 95.7155 43.824C95.4275 44.056 95.2835 44.384 95.2835 44.808C95.2835 45.112 95.3675 45.36 95.5355 45.552C95.7115 45.744 95.9235 45.892 96.1715 45.996C96.4275 46.092 96.7835 46.204 97.2395 46.332C97.7915 46.484 98.2355 46.636 98.5715 46.788C98.9075 46.932 99.1955 47.16 99.4355 47.472C99.6755 47.776 99.7955 48.192 99.7955 48.72C99.7955 49.128 99.6875 49.512 99.4715 49.872C99.2555 50.232 98.9355 50.524 98.5115 50.748C98.0875 50.972 97.5875 51.084 97.0115 51.084ZM105.167 44.304C105.663 44.304 106.111 44.412 106.511 44.628C106.911 44.836 107.223 45.152 107.447 45.576C107.679 46 107.795 46.516 107.795 47.124V51H106.715V47.28C106.715 46.624 106.551 46.124 106.223 45.78C105.895 45.428 105.447 45.252 104.879 45.252C104.303 45.252 103.843 45.432 103.499 45.792C103.163 46.152 102.995 46.676 102.995 47.364V51H101.903V42.12H102.995V45.36C103.211 45.024 103.507 44.764 103.883 44.58C104.267 44.396 104.695 44.304 105.167 44.304ZM110.642 43.356C110.434 43.356 110.258 43.284 110.114 43.14C109.97 42.996 109.898 42.82 109.898 42.612C109.898 42.404 109.97 42.228 110.114 42.084C110.258 41.94 110.434 41.868 110.642 41.868C110.842 41.868 111.01 41.94 111.146 42.084C111.29 42.228 111.362 42.404 111.362 42.612C111.362 42.82 111.29 42.996 111.146 43.14C111.01 43.284 110.842 43.356 110.642 43.356ZM111.17 44.424V51H110.078V44.424H111.17ZM114.623 45.636C114.839 45.26 115.159 44.948 115.583 44.7C116.015 44.444 116.515 44.316 117.083 44.316C117.667 44.316 118.195 44.456 118.667 44.736C119.147 45.016 119.523 45.412 119.795 45.924C120.067 46.428 120.203 47.016 120.203 47.688C120.203 48.352 120.067 48.944 119.795 49.464C119.523 49.984 119.147 50.388 118.667 50.676C118.195 50.964 117.667 51.108 117.083 51.108C116.523 51.108 116.027 50.984 115.595 50.736C115.171 50.48 114.847 50.164 114.623 49.788V54.12H113.531V44.424H114.623V45.636ZM119.087 47.688C119.087 47.192 118.987 46.76 118.787 46.392C118.587 46.024 118.315 45.744 117.971 45.552C117.635 45.36 117.263 45.264 116.855 45.264C116.455 45.264 116.083 45.364 115.739 45.564C115.403 45.756 115.131 46.04 114.923 46.416C114.723 46.784 114.623 47.212 114.623 47.7C114.623 48.196 114.723 48.632 114.923 49.008C115.131 49.376 115.403 49.66 115.739 49.86C116.083 50.052 116.455 50.148 116.855 50.148C117.263 50.148 117.635 50.052 117.971 49.86C118.315 49.66 118.587 49.376 118.787 49.008C118.987 48.632 119.087 48.192 119.087 47.688ZM123.233 45.636C123.449 45.26 123.769 44.948 124.193 44.7C124.625 44.444 125.125 44.316 125.693 44.316C126.277 44.316 126.805 44.456 127.277 44.736C127.757 45.016 128.133 45.412 128.405 45.924C128.677 46.428 128.813 47.016 128.813 47.688C128.813 48.352 128.677 48.944 128.405 49.464C128.133 49.984 127.757 50.388 127.277 50.676C126.805 50.964 126.277 51.108 125.693 51.108C125.133 51.108 124.637 50.984 124.205 50.736C123.781 50.48 123.457 50.164 123.233 49.788V54.12H122.141V44.424H123.233V45.636ZM127.697 47.688C127.697 47.192 127.597 46.76 127.397 46.392C127.197 46.024 126.925 45.744 126.581 45.552C126.245 45.36 125.873 45.264 125.465 45.264C125.065 45.264 124.693 45.364 124.349 45.564C124.013 45.756 123.741 46.04 123.533 46.416C123.333 46.784 123.233 47.212 123.233 47.7C123.233 48.196 123.333 48.632 123.533 49.008C123.741 49.376 124.013 49.66 124.349 49.86C124.693 50.052 125.065 50.148 125.465 50.148C125.873 50.148 126.245 50.052 126.581 49.86C126.925 49.66 127.197 49.376 127.397 49.008C127.597 48.632 127.697 48.192 127.697 47.688ZM131.314 43.356C131.106 43.356 130.93 43.284 130.786 43.14C130.642 42.996 130.57 42.82 130.57 42.612C130.57 42.404 130.642 42.228 130.786 42.084C130.93 41.94 131.106 41.868 131.314 41.868C131.514 41.868 131.682 41.94 131.818 42.084C131.962 42.228 132.034 42.404 132.034 42.612C132.034 42.82 131.962 42.996 131.818 43.14C131.682 43.284 131.514 43.356 131.314 43.356ZM131.842 44.424V51H130.75V44.424H131.842ZM137.407 44.304C138.207 44.304 138.855 44.548 139.351 45.036C139.847 45.516 140.095 46.212 140.095 47.124V51H139.015V47.28C139.015 46.624 138.851 46.124 138.523 45.78C138.195 45.428 137.747 45.252 137.179 45.252C136.603 45.252 136.143 45.432 135.799 45.792C135.463 46.152 135.295 46.676 135.295 47.364V51H134.203V44.424H135.295V45.36C135.511 45.024 135.803 44.764 136.171 44.58C136.547 44.396 136.959 44.304 137.407 44.304ZM145.091 44.316C145.659 44.316 146.155 44.44 146.579 44.688C147.011 44.936 147.331 45.248 147.539 45.624V44.424H148.643V51.144C148.643 51.744 148.515 52.276 148.259 52.74C148.003 53.212 147.635 53.58 147.155 53.844C146.683 54.108 146.131 54.24 145.499 54.24C144.635 54.24 143.915 54.036 143.339 53.628C142.763 53.22 142.423 52.664 142.319 51.96H143.399C143.519 52.36 143.767 52.68 144.143 52.92C144.519 53.168 144.971 53.292 145.499 53.292C146.099 53.292 146.587 53.104 146.963 52.728C147.347 52.352 147.539 51.824 147.539 51.144V49.764C147.323 50.148 147.003 50.468 146.579 50.724C146.155 50.98 145.659 51.108 145.091 51.108C144.507 51.108 143.975 50.964 143.495 50.676C143.023 50.388 142.651 49.984 142.379 49.464C142.107 48.944 141.971 48.352 141.971 47.688C141.971 47.016 142.107 46.428 142.379 45.924C142.651 45.412 143.023 45.016 143.495 44.736C143.975 44.456 144.507 44.316 145.091 44.316ZM147.539 47.7C147.539 47.204 147.439 46.772 147.239 46.404C147.039 46.036 146.767 45.756 146.423 45.564C146.087 45.364 145.715 45.264 145.307 45.264C144.899 45.264 144.527 45.36 144.191 45.552C143.855 45.744 143.587 46.024 143.387 46.392C143.187 46.76 143.087 47.192 143.087 47.688C143.087 48.192 143.187 48.632 143.387 49.008C143.587 49.376 143.855 49.66 144.191 49.86C144.527 50.052 144.899 50.148 145.307 50.148C145.715 50.148 146.087 50.052 146.423 49.86C146.767 49.66 147.039 49.376 147.239 49.008C147.439 48.632 147.539 48.196 147.539 47.7Z" fill="#9098B1"/>
<circle cx="122" cy="12" r="12" fill="#40BFFF"/>
<path d="M119 12.5L121.333 15L126 10" stroke="white" stroke-width="2" stroke-linecap="round" stroke-linejoin="round"/>
<path d="M198.889 49.14H195.241L194.569 51H193.417L196.441 42.684H197.701L200.713 51H199.561L198.889 49.14ZM198.577 48.252L197.065 44.028L195.553 48.252H198.577ZM203.623 45.492C203.815 45.116 204.087 44.824 204.439 44.616C204.799 44.408 205.235 44.304 205.747 44.304V45.432H205.459C204.235 45.432 203.623 46.096 203.623 47.424V51H202.531V44.424H203.623V45.492ZM208.6 45.492C208.792 45.116 209.064 44.824 209.416 44.616C209.776 44.408 210.212 44.304 210.724 44.304V45.432H210.436C209.212 45.432 208.6 46.096 208.6 47.424V51H207.508V44.424H208.6V45.492ZM213.049 43.356C212.841 43.356 212.665 43.284 212.521 43.14C212.377 42.996 212.305 42.82 212.305 42.612C212.305 42.404 212.377 42.228 212.521 42.084C212.665 41.94 212.841 41.868 213.049 41.868C213.249 41.868 213.417 41.94 213.553 42.084C213.697 42.228 213.769 42.404 213.769 42.612C213.769 42.82 213.697 42.996 213.553 43.14C213.417 43.284 213.249 43.356 213.049 43.356ZM213.577 44.424V51H212.485V44.424H213.577ZM218.386 49.992L220.426 44.424H221.59L219.01 51H217.738L215.158 44.424H216.334L218.386 49.992ZM223.728 43.356C223.52 43.356 223.344 43.284 223.2 43.14C223.056 42.996 222.984 42.82 222.984 42.612C222.984 42.404 223.056 42.228 223.2 42.084C223.344 41.94 223.52 41.868 223.728 41.868C223.928 41.868 224.096 41.94 224.232 42.084C224.376 42.228 224.448 42.404 224.448 42.612C224.448 42.82 224.376 42.996 224.232 43.14C224.096 43.284 223.928 43.356 223.728 43.356ZM224.256 44.424V51H223.164V44.424H224.256ZM229.821 44.304C230.621 44.304 231.269 44.548 231.765 45.036C232.261 45.516 232.509 46.212 232.509 47.124V51H231.429V47.28C231.429 46.624 231.265 46.124 230.937 45.78C230.609 45.428 230.161 45.252 229.593 45.252C229.017 45.252 228.557 45.432 228.213 45.792C227.877 46.152 227.709 46.676 227.709 47.364V51H226.617V44.424H227.709V45.36C227.925 45.024 228.217 44.764 228.585 44.58C228.961 44.396 229.373 44.304 229.821 44.304ZM237.505 44.316C238.073 44.316 238.569 44.44 238.993 44.688C239.425 44.936 239.745 45.248 239.953 45.624V44.424H241.057V51.144C241.057 51.744 240.929 52.276 240.673 52.74C240.417 53.212 240.049 53.58 239.569 53.844C239.097 54.108 238.545 54.24 237.913 54.24C237.049 54.24 236.329 54.036 235.753 53.628C235.177 53.22 234.837 52.664 234.733 51.96H235.813C235.933 52.36 236.181 52.68 236.557 52.92C236.933 53.168 237.385 53.292 237.913 53.292C238.513 53.292 239.001 53.104 239.377 52.728C239.761 52.352 239.953 51.824 239.953 51.144V49.764C239.737 50.148 239.417 50.468 238.993 50.724C238.569 50.98 238.073 51.108 237.505 51.108C236.921 51.108 236.389 50.964 235.909 50.676C235.437 50.388 235.065 49.984 234.793 49.464C234.521 48.944 234.385 48.352 234.385 47.688C234.385 47.016 234.521 46.428 234.793 45.924C235.065 45.412 235.437 45.016 235.909 44.736C236.389 44.456 236.921 44.316 237.505 44.316ZM239.953 47.7C239.953 47.204 239.853 46.772 239.653 46.404C239.453 46.036 239.181 45.756 238.837 45.564C238.501 45.364 238.129 45.264 237.721 45.264C237.313 45.264 236.941 45.36 236.605 45.552C236.269 45.744 236.001 46.024 235.801 46.392C235.601 46.76 235.501 47.192 235.501 47.688C235.501 48.192 235.601 48.632 235.801 49.008C236.001 49.376 236.269 49.66 236.605 49.86C236.941 50.052 237.313 50.148 237.721 50.148C238.129 50.148 238.501 50.052 238.837 49.86C239.181 49.66 239.453 49.376 239.653 49.008C239.853 48.632 239.953 48.196 239.953 47.7Z" fill="#9098B1"/>
<circle cx="218" cy="12" r="12" fill="#40BFFF"/>
<path d="M215 12.5L217.333 15L222 10" stroke="white" stroke-width="2" stroke-linecap="round" stroke-linejoin="round"/>
<path d="M292.937 51.084C292.385 51.084 291.889 50.988 291.449 50.796C291.017 50.596 290.677 50.324 290.429 49.98C290.181 49.628 290.053 49.224 290.045 48.768H291.209C291.249 49.16 291.409 49.492 291.689 49.764C291.977 50.028 292.393 50.16 292.937 50.16C293.457 50.16 293.865 50.032 294.161 49.776C294.465 49.512 294.617 49.176 294.617 48.768C294.617 48.448 294.529 48.188 294.353 47.988C294.177 47.788 293.957 47.636 293.693 47.532C293.429 47.428 293.073 47.316 292.625 47.196C292.073 47.052 291.629 46.908 291.293 46.764C290.965 46.62 290.681 46.396 290.441 46.092C290.209 45.78 290.093 45.364 290.093 44.844C290.093 44.388 290.209 43.984 290.441 43.632C290.673 43.28 290.997 43.008 291.413 42.816C291.837 42.624 292.321 42.528 292.865 42.528C293.649 42.528 294.289 42.724 294.785 43.116C295.289 43.508 295.573 44.028 295.637 44.676H294.437C294.397 44.356 294.229 44.076 293.933 43.836C293.637 43.588 293.245 43.464 292.757 43.464C292.301 43.464 291.929 43.584 291.641 43.824C291.353 44.056 291.209 44.384 291.209 44.808C291.209 45.112 291.293 45.36 291.461 45.552C291.637 45.744 291.849 45.892 292.097 45.996C292.353 46.092 292.709 46.204 293.165 46.332C293.717 46.484 294.161 46.636 294.497 46.788C294.833 46.932 295.121 47.16 295.361 47.472C295.601 47.776 295.721 48.192 295.721 48.72C295.721 49.128 295.613 49.512 295.397 49.872C295.181 50.232 294.861 50.524 294.437 50.748C294.013 50.972 293.513 51.084 292.937 51.084ZM303.66 44.424V51H302.568V50.028C302.36 50.364 302.068 50.628 301.692 50.82C301.324 51.004 300.916 51.096 300.468 51.096C299.956 51.096 299.496 50.992 299.088 50.784C298.68 50.568 298.356 50.248 298.116 49.824C297.884 49.4 297.768 48.884 297.768 48.276V44.424H298.848V48.132C298.848 48.78 299.012 49.28 299.34 49.632C299.668 49.976 300.116 50.148 300.684 50.148C301.268 50.148 301.728 49.968 302.064 49.608C302.4 49.248 302.568 48.724 302.568 48.036V44.424H303.66ZM305.596 47.7C305.596 47.02 305.732 46.428 306.004 45.924C306.276 45.412 306.652 45.016 307.132 44.736C307.62 44.456 308.176 44.316 308.8 44.316C309.608 44.316 310.272 44.512 310.792 44.904C311.32 45.296 311.668 45.84 311.836 46.536H310.66C310.548 46.136 310.328 45.82 310 45.588C309.68 45.356 309.28 45.24 308.8 45.24C308.176 45.24 307.672 45.456 307.288 45.888C306.904 46.312 306.712 46.916 306.712 47.7C306.712 48.492 306.904 49.104 307.288 49.536C307.672 49.968 308.176 50.184 308.8 50.184C309.28 50.184 309.68 50.072 310 49.848C310.32 49.624 310.54 49.304 310.66 48.888H311.836C311.66 49.56 311.308 50.1 310.78 50.508C310.252 50.908 309.592 51.108 308.8 51.108C308.176 51.108 307.62 50.968 307.132 50.688C306.652 50.408 306.276 50.012 306.004 49.5C305.732 48.988 305.596 48.388 305.596 47.7ZM313.385 47.7C313.385 47.02 313.521 46.428 313.793 45.924C314.065 45.412 314.441 45.016 314.921 44.736C315.409 44.456 315.965 44.316 316.589 44.316C317.397 44.316 318.061 44.512 318.581 44.904C319.109 45.296 319.457 45.84 319.625 46.536H318.449C318.337 46.136 318.117 45.82 317.789 45.588C317.469 45.356 317.069 45.24 316.589 45.24C315.965 45.24 315.461 45.456 315.077 45.888C314.693 46.312 314.501 46.916 314.501 47.7C314.501 48.492 314.693 49.104 315.077 49.536C315.461 49.968 315.965 50.184 316.589 50.184C317.069 50.184 317.469 50.072 317.789 49.848C318.109 49.624 318.329 49.304 318.449 48.888H319.625C319.449 49.56 319.097 50.1 318.569 50.508C318.041 50.908 317.381 51.108 316.589 51.108C315.965 51.108 315.409 50.968 314.921 50.688C314.441 50.408 314.065 50.012 313.793 49.5C313.521 48.988 313.385 48.388 313.385 47.7ZM327.582 47.46C327.582 47.668 327.57 47.888 327.546 48.12H322.29C322.33 48.768 322.55 49.276 322.95 49.644C323.358 50.004 323.85 50.184 324.426 50.184C324.898 50.184 325.29 50.076 325.602 49.86C325.922 49.636 326.146 49.34 326.274 48.972H327.45C327.274 49.604 326.922 50.12 326.394 50.52C325.866 50.912 325.21 51.108 324.426 51.108C323.802 51.108 323.242 50.968 322.746 50.688C322.258 50.408 321.874 50.012 321.594 49.5C321.314 48.98 321.174 48.38 321.174 47.7C321.174 47.02 321.31 46.424 321.582 45.912C321.854 45.4 322.234 45.008 322.722 44.736C323.218 44.456 323.786 44.316 324.426 44.316C325.05 44.316 325.602 44.452 326.082 44.724C326.562 44.996 326.93 45.372 327.186 45.852C327.45 46.324 327.582 46.86 327.582 47.46ZM326.454 47.232C326.454 46.816 326.362 46.46 326.178 46.164C325.994 45.86 325.742 45.632 325.422 45.48C325.11 45.32 324.762 45.24 324.378 45.24C323.826 45.24 323.354 45.416 322.962 45.768C322.578 46.12 322.358 46.608 322.302 47.232H326.454ZM331.852 51.108C331.348 51.108 330.896 51.024 330.496 50.856C330.096 50.68 329.78 50.44 329.548 50.136C329.316 49.824 329.188 49.468 329.164 49.068H330.292C330.324 49.396 330.476 49.664 330.748 49.872C331.028 50.08 331.392 50.184 331.84 50.184C332.256 50.184 332.584 50.092 332.824 49.908C333.064 49.724 333.184 49.492 333.184 49.212C333.184 48.924 333.056 48.712 332.8 48.576C332.544 48.432 332.148 48.292 331.612 48.156C331.124 48.028 330.724 47.9 330.412 47.772C330.108 47.636 329.844 47.44 329.62 47.184C329.404 46.92 329.296 46.576 329.296 46.152C329.296 45.816 329.396 45.508 329.596 45.228C329.796 44.948 330.08 44.728 330.448 44.568C330.816 44.4 331.236 44.316 331.708 44.316C332.436 44.316 333.024 44.5 333.472 44.868C333.92 45.236 334.16 45.74 334.192 46.38H333.1C333.076 46.036 332.936 45.76 332.68 45.552C332.432 45.344 332.096 45.24 331.672 45.24C331.28 45.24 330.968 45.324 330.736 45.492C330.504 45.66 330.388 45.88 330.388 46.152C330.388 46.368 330.456 46.548 330.592 46.692C330.736 46.828 330.912 46.94 331.12 47.028C331.336 47.108 331.632 47.2 332.008 47.304C332.48 47.432 332.864 47.56 333.16 47.688C333.456 47.808 333.708 47.992 333.916 48.24C334.132 48.488 334.244 48.812 334.252 49.212C334.252 49.572 334.152 49.896 333.952 50.184C333.752 50.472 333.468 50.7 333.1 50.868C332.74 51.028 332.324 51.108 331.852 51.108ZM338.621 51.108C338.117 51.108 337.665 51.024 337.265 50.856C336.865 50.68 336.549 50.44 336.317 50.136C336.085 49.824 335.957 49.468 335.933 49.068H337.061C337.093 49.396 337.245 49.664 337.517 49.872C337.797 50.08 338.161 50.184 338.609 50.184C339.025 50.184 339.353 50.092 339.593 49.908C339.833 49.724 339.953 49.492 339.953 49.212C339.953 48.924 339.825 48.712 339.569 48.576C339.313 48.432 338.917 48.292 338.381 48.156C337.893 48.028 337.493 47.9 337.181 47.772C336.877 47.636 336.613 47.44 336.389 47.184C336.173 46.92 336.065 46.576 336.065 46.152C336.065 45.816 336.165 45.508 336.365 45.228C336.565 44.948 336.849 44.728 337.217 44.568C337.585 44.4 338.005 44.316 338.477 44.316C339.205 44.316 339.793 44.5 340.241 44.868C340.689 45.236 340.929 45.74 340.961 46.38H339.869C339.845 46.036 339.705 45.76 339.449 45.552C339.201 45.344 338.865 45.24 338.441 45.24C338.049 45.24 337.737 45.324 337.505 45.492C337.273 45.66 337.157 45.88 337.157 46.152C337.157 46.368 337.225 46.548 337.361 46.692C337.505 46.828 337.681 46.94 337.889 47.028C338.105 47.108 338.401 47.2 338.777 47.304C339.249 47.432 339.633 47.56 339.929 47.688C340.225 47.808 340.477 47.992 340.685 48.24C340.901 48.488 341.013 48.812 341.021 49.212C341.021 49.572 340.921 49.896 340.721 50.184C340.521 50.472 340.237 50.7 339.869 50.868C339.509 51.028 339.093 51.108 338.621 51.108Z" fill="#9098B1"/>
<circle cx="314" cy="12" r="12" fill="#EBF0FF"/>
<path d="M311 12.5L313.333 15L318 10" stroke="white" stroke-width="2" stroke-linecap="round" stroke-linejoin="round"/>
</svg>
